<mxfile host="app.diagrams.net" agent="Mozilla/5.0 (Windows NT 10.0; Win64; x64) AppleWebKit/537.36 (KHTML, like Gecko) Chrome/131.0.0.0 Safari/537.36" version="25.0.3">
  <diagram name="Trang-1" id="kqBhtNF_M_-ir3bmHOhQ">
    <mxGraphModel dx="1290" dy="557" grid="1" gridSize="10" guides="1" tooltips="1" connect="1" arrows="1" fold="1" page="1" pageScale="1" pageWidth="827" pageHeight="1169" math="0" shadow="0">
      <root>
        <mxCell id="0" />
        <mxCell id="1" parent="0" />
        <mxCell id="MTio2cS6uVc2Ep0kFFS0-4" value="" style="edgeStyle=orthogonalEdgeStyle;rounded=0;orthogonalLoop=1;jettySize=auto;html=1;" parent="1" source="MTio2cS6uVc2Ep0kFFS0-1" target="MTio2cS6uVc2Ep0kFFS0-3" edge="1">
          <mxGeometry relative="1" as="geometry" />
        </mxCell>
        <mxCell id="MTio2cS6uVc2Ep0kFFS0-1" value="Start" style="strokeWidth=2;html=1;shape=mxgraph.flowchart.start_1;whiteSpace=wrap;" parent="1" vertex="1">
          <mxGeometry x="330" y="60" width="100" height="60" as="geometry" />
        </mxCell>
        <mxCell id="MTio2cS6uVc2Ep0kFFS0-2" value="End" style="strokeWidth=2;html=1;shape=mxgraph.flowchart.start_1;whiteSpace=wrap;" parent="1" vertex="1">
          <mxGeometry x="610" y="1240" width="100" height="60" as="geometry" />
        </mxCell>
        <mxCell id="MTio2cS6uVc2Ep0kFFS0-6" value="" style="edgeStyle=orthogonalEdgeStyle;rounded=0;orthogonalLoop=1;jettySize=auto;html=1;" parent="1" source="MTio2cS6uVc2Ep0kFFS0-3" target="MTio2cS6uVc2Ep0kFFS0-5" edge="1">
          <mxGeometry relative="1" as="geometry" />
        </mxCell>
        <mxCell id="MTio2cS6uVc2Ep0kFFS0-3" value="Input n" style="shape=parallelogram;html=1;strokeWidth=2;perimeter=parallelogramPerimeter;whiteSpace=wrap;rounded=1;arcSize=12;size=0.23;" parent="1" vertex="1">
          <mxGeometry x="320" y="150" width="120" height="40" as="geometry" />
        </mxCell>
        <mxCell id="MTio2cS6uVc2Ep0kFFS0-8" value="" style="edgeStyle=orthogonalEdgeStyle;rounded=0;orthogonalLoop=1;jettySize=auto;html=1;entryX=0.5;entryY=0;entryDx=0;entryDy=0;entryPerimeter=0;" parent="1" source="MTio2cS6uVc2Ep0kFFS0-5" target="MTio2cS6uVc2Ep0kFFS0-2" edge="1">
          <mxGeometry relative="1" as="geometry">
            <mxPoint x="750" y="1180" as="targetPoint" />
          </mxGeometry>
        </mxCell>
        <mxCell id="ZJvN9yDgqp3NpVCqqcqW-3" value="" style="edgeStyle=orthogonalEdgeStyle;rounded=0;orthogonalLoop=1;jettySize=auto;html=1;" parent="1" source="MTio2cS6uVc2Ep0kFFS0-5" target="ZJvN9yDgqp3NpVCqqcqW-2" edge="1">
          <mxGeometry relative="1" as="geometry" />
        </mxCell>
        <mxCell id="MTio2cS6uVc2Ep0kFFS0-5" value="if n&amp;lt;= 0" style="rhombus;whiteSpace=wrap;html=1;strokeWidth=2;rounded=1;arcSize=12;" parent="1" vertex="1">
          <mxGeometry x="320" y="220" width="120" height="50" as="geometry" />
        </mxCell>
        <mxCell id="MTio2cS6uVc2Ep0kFFS0-11" value="True" style="text;html=1;align=center;verticalAlign=middle;whiteSpace=wrap;rounded=0;" parent="1" vertex="1">
          <mxGeometry x="430" y="210" width="60" height="30" as="geometry" />
        </mxCell>
        <mxCell id="MTio2cS6uVc2Ep0kFFS0-12" value="False" style="text;html=1;align=center;verticalAlign=middle;whiteSpace=wrap;rounded=0;" parent="1" vertex="1">
          <mxGeometry x="320" y="260" width="60" height="30" as="geometry" />
        </mxCell>
        <mxCell id="ZJvN9yDgqp3NpVCqqcqW-5" value="" style="edgeStyle=orthogonalEdgeStyle;rounded=0;orthogonalLoop=1;jettySize=auto;html=1;" parent="1" source="ZJvN9yDgqp3NpVCqqcqW-2" target="ZJvN9yDgqp3NpVCqqcqW-4" edge="1">
          <mxGeometry relative="1" as="geometry" />
        </mxCell>
        <mxCell id="ZJvN9yDgqp3NpVCqqcqW-2" value="&amp;nbsp;count=0 num=2" style="whiteSpace=wrap;html=1;strokeWidth=2;rounded=1;arcSize=12;" parent="1" vertex="1">
          <mxGeometry x="320" y="300" width="120" height="60" as="geometry" />
        </mxCell>
        <mxCell id="ZJvN9yDgqp3NpVCqqcqW-10" value="" style="edgeStyle=orthogonalEdgeStyle;rounded=0;orthogonalLoop=1;jettySize=auto;html=1;entryX=0.5;entryY=0;entryDx=0;entryDy=0;" parent="1" source="ZJvN9yDgqp3NpVCqqcqW-4" target="ZJvN9yDgqp3NpVCqqcqW-11" edge="1">
          <mxGeometry relative="1" as="geometry">
            <mxPoint x="380" y="530" as="targetPoint" />
          </mxGeometry>
        </mxCell>
        <mxCell id="ZJvN9yDgqp3NpVCqqcqW-4" value="count &amp;lt; n" style="rhombus;whiteSpace=wrap;html=1;strokeWidth=2;rounded=1;arcSize=12;" parent="1" vertex="1">
          <mxGeometry x="320" y="450" width="120" height="50" as="geometry" />
        </mxCell>
        <mxCell id="ZJvN9yDgqp3NpVCqqcqW-6" style="edgeStyle=orthogonalEdgeStyle;rounded=0;orthogonalLoop=1;jettySize=auto;html=1;entryX=0;entryY=0.5;entryDx=0;entryDy=0;entryPerimeter=0;" parent="1" source="ZJvN9yDgqp3NpVCqqcqW-4" target="MTio2cS6uVc2Ep0kFFS0-2" edge="1">
          <mxGeometry relative="1" as="geometry">
            <Array as="points">
              <mxPoint x="600" y="475" />
            </Array>
          </mxGeometry>
        </mxCell>
        <mxCell id="ZJvN9yDgqp3NpVCqqcqW-7" value="True" style="text;html=1;align=center;verticalAlign=middle;whiteSpace=wrap;rounded=0;" parent="1" vertex="1">
          <mxGeometry x="330" y="530" width="60" height="30" as="geometry" />
        </mxCell>
        <mxCell id="ZJvN9yDgqp3NpVCqqcqW-8" value="False" style="text;html=1;align=center;verticalAlign=middle;whiteSpace=wrap;rounded=0;" parent="1" vertex="1">
          <mxGeometry x="430" y="440" width="60" height="30" as="geometry" />
        </mxCell>
        <mxCell id="ZJvN9yDgqp3NpVCqqcqW-14" value="" style="edgeStyle=orthogonalEdgeStyle;rounded=0;orthogonalLoop=1;jettySize=auto;html=1;" parent="1" source="ZJvN9yDgqp3NpVCqqcqW-11" target="ZJvN9yDgqp3NpVCqqcqW-13" edge="1">
          <mxGeometry relative="1" as="geometry" />
        </mxCell>
        <mxCell id="ZJvN9yDgqp3NpVCqqcqW-11" value="For i =2 , i*i primeNums,i++" style="whiteSpace=wrap;html=1;strokeWidth=2;rounded=1;arcSize=12;" parent="1" vertex="1">
          <mxGeometry x="300" y="600" width="160" height="60" as="geometry" />
        </mxCell>
        <mxCell id="ZJvN9yDgqp3NpVCqqcqW-16" value="" style="edgeStyle=orthogonalEdgeStyle;rounded=0;orthogonalLoop=1;jettySize=auto;html=1;" parent="1" source="ZJvN9yDgqp3NpVCqqcqW-13" target="ZJvN9yDgqp3NpVCqqcqW-15" edge="1">
          <mxGeometry relative="1" as="geometry" />
        </mxCell>
        <mxCell id="ZJvN9yDgqp3NpVCqqcqW-21" style="edgeStyle=orthogonalEdgeStyle;rounded=0;orthogonalLoop=1;jettySize=auto;html=1;entryX=1;entryY=0.5;entryDx=0;entryDy=0;" parent="1" source="ZJvN9yDgqp3NpVCqqcqW-13" target="ZJvN9yDgqp3NpVCqqcqW-18" edge="1">
          <mxGeometry relative="1" as="geometry">
            <Array as="points">
              <mxPoint x="560" y="715" />
              <mxPoint x="560" y="869" />
            </Array>
          </mxGeometry>
        </mxCell>
        <mxCell id="ZJvN9yDgqp3NpVCqqcqW-13" value="num % i == 0" style="rhombus;whiteSpace=wrap;html=1;strokeWidth=2;rounded=1;arcSize=12;" parent="1" vertex="1">
          <mxGeometry x="320" y="690" width="120" height="50" as="geometry" />
        </mxCell>
        <mxCell id="ZJvN9yDgqp3NpVCqqcqW-19" value="" style="edgeStyle=orthogonalEdgeStyle;rounded=0;orthogonalLoop=1;jettySize=auto;html=1;" parent="1" source="ZJvN9yDgqp3NpVCqqcqW-15" target="ZJvN9yDgqp3NpVCqqcqW-18" edge="1">
          <mxGeometry relative="1" as="geometry" />
        </mxCell>
        <mxCell id="ZJvN9yDgqp3NpVCqqcqW-15" value="count++" style="whiteSpace=wrap;html=1;strokeWidth=2;rounded=1;arcSize=12;" parent="1" vertex="1">
          <mxGeometry x="330" y="770" width="100" height="35" as="geometry" />
        </mxCell>
        <mxCell id="ZJvN9yDgqp3NpVCqqcqW-17" value="True" style="text;html=1;align=center;verticalAlign=middle;whiteSpace=wrap;rounded=0;" parent="1" vertex="1">
          <mxGeometry x="330" y="740" width="60" height="30" as="geometry" />
        </mxCell>
        <mxCell id="ZJvN9yDgqp3NpVCqqcqW-24" value="" style="edgeStyle=orthogonalEdgeStyle;rounded=0;orthogonalLoop=1;jettySize=auto;html=1;" parent="1" source="ZJvN9yDgqp3NpVCqqcqW-18" target="ZJvN9yDgqp3NpVCqqcqW-23" edge="1">
          <mxGeometry relative="1" as="geometry" />
        </mxCell>
        <mxCell id="ZJvN9yDgqp3NpVCqqcqW-33" style="edgeStyle=orthogonalEdgeStyle;rounded=0;orthogonalLoop=1;jettySize=auto;html=1;entryX=0;entryY=0.5;entryDx=0;entryDy=0;" parent="1" source="ZJvN9yDgqp3NpVCqqcqW-18" target="ZJvN9yDgqp3NpVCqqcqW-28" edge="1">
          <mxGeometry relative="1" as="geometry">
            <Array as="points">
              <mxPoint x="230" y="868.75" />
              <mxPoint x="230" y="1135" />
            </Array>
          </mxGeometry>
        </mxCell>
        <mxCell id="ZJvN9yDgqp3NpVCqqcqW-18" value="&amp;nbsp;count==0" style="rhombus;whiteSpace=wrap;html=1;strokeWidth=2;rounded=1;arcSize=12;" parent="1" vertex="1">
          <mxGeometry x="320" y="840" width="120" height="57.5" as="geometry" />
        </mxCell>
        <mxCell id="ZJvN9yDgqp3NpVCqqcqW-22" value="False" style="text;html=1;align=center;verticalAlign=middle;whiteSpace=wrap;rounded=0;" parent="1" vertex="1">
          <mxGeometry x="470" y="690" width="60" height="30" as="geometry" />
        </mxCell>
        <mxCell id="ZJvN9yDgqp3NpVCqqcqW-27" value="" style="edgeStyle=orthogonalEdgeStyle;rounded=0;orthogonalLoop=1;jettySize=auto;html=1;" parent="1" source="ZJvN9yDgqp3NpVCqqcqW-23" target="ZJvN9yDgqp3NpVCqqcqW-26" edge="1">
          <mxGeometry relative="1" as="geometry" />
        </mxCell>
        <mxCell id="ZJvN9yDgqp3NpVCqqcqW-23" value="primeNums" style="whiteSpace=wrap;html=1;strokeWidth=2;rounded=1;arcSize=12;" parent="1" vertex="1">
          <mxGeometry x="330" y="940" width="100" height="40" as="geometry" />
        </mxCell>
        <mxCell id="ZJvN9yDgqp3NpVCqqcqW-25" value="True" style="text;html=1;align=center;verticalAlign=middle;whiteSpace=wrap;rounded=0;" parent="1" vertex="1">
          <mxGeometry x="330" y="897.5" width="60" height="30" as="geometry" />
        </mxCell>
        <mxCell id="ZJvN9yDgqp3NpVCqqcqW-29" value="" style="edgeStyle=orthogonalEdgeStyle;rounded=0;orthogonalLoop=1;jettySize=auto;html=1;" parent="1" source="ZJvN9yDgqp3NpVCqqcqW-26" target="ZJvN9yDgqp3NpVCqqcqW-28" edge="1">
          <mxGeometry relative="1" as="geometry" />
        </mxCell>
        <mxCell id="ZJvN9yDgqp3NpVCqqcqW-26" value="n--" style="whiteSpace=wrap;html=1;strokeWidth=2;rounded=1;arcSize=12;" parent="1" vertex="1">
          <mxGeometry x="320" y="1020" width="120" height="50" as="geometry" />
        </mxCell>
        <mxCell id="ZJvN9yDgqp3NpVCqqcqW-32" style="edgeStyle=orthogonalEdgeStyle;rounded=0;orthogonalLoop=1;jettySize=auto;html=1;entryX=0;entryY=0.5;entryDx=0;entryDy=0;" parent="1" source="ZJvN9yDgqp3NpVCqqcqW-28" target="ZJvN9yDgqp3NpVCqqcqW-4" edge="1">
          <mxGeometry relative="1" as="geometry">
            <Array as="points">
              <mxPoint x="380" y="1190" />
              <mxPoint x="160" y="1190" />
              <mxPoint x="160" y="475" />
            </Array>
          </mxGeometry>
        </mxCell>
        <mxCell id="ZJvN9yDgqp3NpVCqqcqW-28" value="premeNums++" style="whiteSpace=wrap;html=1;strokeWidth=2;rounded=1;arcSize=12;" parent="1" vertex="1">
          <mxGeometry x="320" y="1109" width="120" height="51" as="geometry" />
        </mxCell>
        <mxCell id="ZJvN9yDgqp3NpVCqqcqW-34" value="False" style="text;html=1;align=center;verticalAlign=middle;whiteSpace=wrap;rounded=0;" parent="1" vertex="1">
          <mxGeometry x="260" y="840" width="60" height="30" as="geometry" />
        </mxCell>
      </root>
    </mxGraphModel>
  </diagram>
</mxfile>
